<?xml version="1.0" encoding="UTF-8"?>
<svg version="1.1" xmlns="http://www.w3.org/2000/svg" width="297" height="297">
<path d="M0 0 C98.01 0 196.02 0 297 0 C297 98.01 297 196.02 297 297 C198.99 297 100.98 297 0 297 C0 198.99 0 100.98 0 0 Z " fill="#FEFEFE" transform="translate(0,0)"/>
<path d="M0 0 C0.95455078 0.00064453 1.90910156 0.00128906 2.89257812 0.00195312 C6.84455301 0.02649955 10.6153244 0.14057442 14.53125 0.7109375 C19.62851611 1.42408712 24.69014003 1.12642198 29.82226562 0.88476562 C36.6794523 0.73557623 41.61759389 2.44808828 46.92578125 6.828125 C52.23233216 13.27738451 54.6172511 19.3731677 54.26953125 27.80859375 C53.41989984 33.89595292 50.21337871 37.19981451 45.75 41.0625 C17.92978211 61.99811983 -20.84279826 71.28758587 -54.07421875 79.42480469 C-57.98301614 80.42244219 -61.84546067 81.56601741 -65.70507812 82.73876953 C-68.20979867 83.215538 -69.6734074 83.00434871 -72.0625 82.1875 C-71.04341553 81.83147705 -70.02433105 81.4754541 -68.97436523 81.10864258 C-40.79415964 71.23876582 -12.46764316 61.28065925 13.9375 47.1875 C15.09894531 46.59582031 16.26039063 46.00414062 17.45703125 45.39453125 C26.40922261 40.7598539 36.6359024 35.17629895 41.9375 26.1875 C42.85538912 22.55783135 42.85538912 22.55783135 41.9375 19.1875 C37.21717256 13.87713163 29.77589258 12.04229907 22.9375 11.1875 C22.58558594 11.82816406 22.23367187 12.46882813 21.87109375 13.12890625 C12.64094406 29.29974292 -2.54543496 37.22468472 -19.31640625 44.11328125 C-21.5100698 45.46285055 -21.94127309 46.56408578 -22.875 48.9375 C-26.66682177 56.97151318 -33.08491426 60.02676042 -41.125 63.15234375 C-46.48985081 65.04288293 -51.33060412 66.29564898 -57.0625 66.1875 C-56.53849609 64.97513672 -56.53849609 64.97513672 -56.00390625 63.73828125 C-55.54886719 62.66964844 -55.09382813 61.60101563 -54.625 60.5 C-54.17253906 59.44425781 -53.72007813 58.38851562 -53.25390625 57.30078125 C-52.20802545 54.56777471 -51.52729252 52.06707663 -51.0625 49.1875 C-51.83335938 49.27128906 -52.60421875 49.35507813 -53.3984375 49.44140625 C-54.40132813 49.54324219 -55.40421875 49.64507812 -56.4375 49.75 C-57.93410156 49.90662109 -57.93410156 49.90662109 -59.4609375 50.06640625 C-62.0625 50.1875 -62.0625 50.1875 -64.0625 49.1875 C-64.30613281 49.73664063 -64.54976563 50.28578125 -64.80078125 50.8515625 C-66.3357329 53.69336154 -68.23846353 56.03509617 -70.25 58.5625 C-78.81099379 69.82041429 -84.10049362 80.80657018 -83.0625 95.1875 C-81.41672834 102.36669289 -76.45904146 106.43010163 -70.5 110.25 C-53.67775949 119.88388223 -33.85177838 120.62147206 -14.9375 120.875 C-13.18877868 120.90829815 -11.44007983 120.94279845 -9.69140625 120.97851562 C-5.48189909 121.06195413 -1.2724301 121.12941208 2.9375 121.1875 C2.9375 121.5175 2.9375 121.8475 2.9375 122.1875 C-17.46236661 124.65147361 -37.70590614 125.49710287 -58.25 125.5 C-59.35918793 125.50322266 -60.46837585 125.50644531 -61.61117554 125.50976562 C-117.35970501 125.60864249 -117.35970501 125.60864249 -130.4375 112.875 C-134.60565069 105.98152001 -136.47541612 99.2627797 -135.0625 91.1875 C-131.60126277 81.62327126 -126.23636734 74.3354689 -119.0625 67.1875 C-118.26972656 66.30578125 -118.26972656 66.30578125 -117.4609375 65.40625 C-106.13755841 53.09570453 -90.47416266 45.05640793 -76.02661133 37.06079102 C-72.50724433 35.09178987 -69.81328135 33.14204293 -67.0625 30.1875 C-66.0725 29.6925 -66.0725 29.6925 -65.0625 29.1875 C-65.0625 28.1975 -65.0625 27.2075 -65.0625 26.1875 C-70.66776694 23.86419016 -76.18774968 21.72004356 -82.0625 20.1875 C-76.32588038 12.64550102 -68.73955712 8.07790159 -59.3515625 6.60546875 C-52.80232241 6.41367972 -47.67404348 7.08624791 -42.02734375 10.5078125 C-40.02424525 11.41350463 -40.02424525 11.41350463 -37.8046875 10.5234375 C-36.89976563 10.08257812 -35.99484375 9.64171875 -35.0625 9.1875 C-33.82847367 8.63173666 -32.59264573 8.07996393 -31.35546875 7.53125 C-29.30394591 6.61112522 -27.25365579 5.68917222 -25.20898438 4.75390625 C-16.68186784 0.95138347 -9.33253966 -0.12021577 0 0 Z " fill="#FE0202" transform="translate(160.0625,72.8125)"/>
<path d="M0 0 C1.67578125 2.328125 1.67578125 2.328125 3.3125 5.25 C4.14201172 6.68085937 4.14201172 6.68085937 4.98828125 8.140625 C6 11 6 11 5.39453125 13.58203125 C3.92224835 16.13481309 2.30891207 18.21465684 0.375 20.4375 C-9.0044188 31.87080613 -15.31753153 43.86897387 -14 59 C-12.33184142 66.18090141 -7.40743094 70.23562119 -1.4375 74.0625 C15.38474051 83.69638223 35.21072162 84.43397206 54.125 84.6875 C55.87372132 84.72079815 57.62242017 84.75529845 59.37109375 84.79101562 C63.58060091 84.87445413 67.7900699 84.94191208 72 85 C72 85.33 72 85.66 72 86 C51.60013339 88.46397361 31.35659386 89.30960287 10.8125 89.3125 C9.70331207 89.31572266 8.59412415 89.31894531 7.45132446 89.32226562 C-48.29720501 89.42114249 -48.29720501 89.42114249 -61.375 76.6875 C-65.54315069 69.79402001 -67.41291612 63.0752797 -66 55 C-62.53876277 45.43577126 -57.17386734 38.1479689 -50 31 C-49.47148438 30.4121875 -48.94296875 29.824375 -48.3984375 29.21875 C-37.62908976 17.51053604 -22.79859344 9.54043339 -9 2 C-7.88753906 1.38125 -6.77507812 0.7625 -5.62890625 0.125 C-3 -1 -3 -1 0 0 Z " fill="#676767" transform="translate(91,109)"/>
<path d="M0 0 C3.00099588 -0.10890711 5.99796378 -0.18773555 9 -0.25 C9.83917969 -0.28351563 10.67835938 -0.31703125 11.54296875 -0.3515625 C18.54390154 -0.46010409 23.56464545 1.16532631 28.98828125 5.640625 C34.29483216 12.08988451 36.6797511 18.1856677 36.33203125 26.62109375 C35.48239984 32.70845292 32.27587871 36.01231451 27.8125 39.875 C-0.00771789 60.81061983 -38.78029826 70.10008587 -72.01171875 78.23730469 C-75.92051614 79.23494219 -79.78296067 80.37851741 -83.64257812 81.55126953 C-86.14729867 82.028038 -87.6109074 81.81684871 -90 81 C-88.98091553 80.64397705 -87.96183105 80.2879541 -86.91186523 79.92114258 C-58.73165964 70.05126582 -30.40514316 60.09315925 -4 46 C-2.83855469 45.40832031 -1.67710937 44.81664062 -0.48046875 44.20703125 C8.47172261 39.5723539 18.6984024 33.98879895 24 25 C24.91788912 21.37033135 24.91788912 21.37033135 24 18 C20.48027173 14.04030569 15.90454416 12.61572702 11 11 C9.2675 10.4121875 9.2675 10.4121875 7.5 9.8125 C6.675 9.544375 5.85 9.27625 5 9 C5.33 7.35 5.66 5.7 6 4 C4.02 3.01 2.04 2.02 0 1 C0 0.67 0 0.34 0 0 Z " fill="#6A6A6A" transform="translate(178,74)"/>
<path d="M0 0 C8.25 0 16.5 0 25 0 C25 1.98 25 3.96 25 6 C19.39 6 13.78 6 8 6 C8 7.98 8 9.96 8 12 C13.28 12 18.56 12 24 12 C24 13.98 24 15.96 24 18 C18.72 18 13.44 18 8 18 C8 20.64 8 23.28 8 26 C13.94 26 19.88 26 26 26 C26 28.31 26 30.62 26 33 C17.42 33 8.84 33 0 33 C0 22.11 0 11.22 0 0 Z " fill="#121212" transform="translate(186,138)"/>
<path d="M0 0 C3.74741077 2.06144404 5.26529573 4.28616273 6.6875 8.375 C6.6875 9.035 6.6875 9.695 6.6875 10.375 C3.7175 10.375 0.7475 10.375 -2.3125 10.375 C-2.6425 9.055 -2.9725 7.735 -3.3125 6.375 C-7.44779391 5.41670957 -7.44779391 5.41670957 -11.5625 6.0625 C-14.21998242 8.05561182 -15.14738516 10.30175357 -15.6484375 13.55859375 C-15.71701712 17.51563802 -15.57643785 19.87757866 -13.6875 23.4375 C-11.41295807 25.58514673 -11.41295807 25.58514673 -8.3125 26.0625 C-6.8275 25.7221875 -6.8275 25.7221875 -5.3125 25.375 C-4.69375 24.385 -4.075 23.395 -3.4375 22.375 C-1.3125 19.375 -1.3125 19.375 0.7109375 18.9765625 C2.9375 19 2.9375 19 6.6875 19.375 C6.23463369 24.24331281 5.10428531 26.86059226 1.6875 30.375 C-3.40551894 33.6180883 -9.52576835 33.19161907 -15.3125 32.375 C-19.65209956 30.13988852 -22.55161493 26.92733421 -24.3125 22.375 C-24.94603476 16.7394873 -25.37210032 10.52230597 -22.8125 5.3125 C-16.69993094 -1.86976865 -8.63379824 -3.75657035 0 0 Z " fill="#101010" transform="translate(175.3125,138.625)"/>
<path d="M0 0 C2.64 0 5.28 0 8 0 C8 8.58 8 17.16 8 26 C13.28 26 18.56 26 24 26 C24 28.31 24 30.62 24 33 C16.08 33 8.16 33 0 33 C0 22.11 0 11.22 0 0 Z " fill="#151515" transform="translate(245,138)"/>
<path d="M0 0 C2.64 0 5.28 0 8 0 C8 8.58 8 17.16 8 26 C13.28 26 18.56 26 24 26 C24 28.31 24 30.62 24 33 C16.08 33 8.16 33 0 33 C0 22.11 0 11.22 0 0 Z " fill="#151515" transform="translate(217,138)"/>
<path d="M0 0 C0.66 0 1.32 0 2 0 C2.33 2.97 2.66 5.94 3 9 C3.99 8.67 4.98 8.34 6 8 C6.33 5.36 6.66 2.72 7 0 C8.65 0 10.3 0 12 0 C12.66 1.32 13.32 2.64 14 4 C14.33 2.68 14.66 1.36 15 0 C15.99 0 16.98 0 18 0 C18.66 1.65 19.32 3.3 20 5 C20.66 3.35 21.32 1.7 22 0 C22.66 0 23.32 0 24 0 C23.01 3.63 22.02 7.26 21 11 C20.01 11 19.02 11 18 11 C17.67 9.68 17.34 8.36 17 7 C16.34 8.32 15.68 9.64 15 11 C14.01 10.67 13.02 10.34 12 10 C10.8125 6.4375 10.8125 6.4375 10 3 C9.67 5.64 9.34 8.28 9 11 C5.625 11.625 5.625 11.625 2 12 C0 10 0 10 -0.1953125 7.6171875 C-0.17210937 6.71226562 -0.14890625 5.80734375 -0.125 4.875 C-0.10695312 3.96492187 -0.08890625 3.05484375 -0.0703125 2.1171875 C-0.04710937 1.41851562 -0.02390625 0.71984375 0 0 Z " fill="#373737" transform="translate(203,181)"/>
<path d="M0 0 C2.8125 0.9375 2.8125 0.9375 4.8125 2.9375 C4.8125 3.9275 4.8125 4.9175 4.8125 5.9375 C4.235 5.7725 3.6575 5.6075 3.0625 5.4375 C0.54585631 4.79287969 0.54585631 4.79287969 -3.1875 4.9375 C-3.1875 6.9175 -3.1875 8.8975 -3.1875 10.9375 C-1.8675 11.2675 -0.5475 11.5975 0.8125 11.9375 C1.1425 11.2775 1.4725 10.6175 1.8125 9.9375 C0.8225 9.9375 -0.1675 9.9375 -1.1875 9.9375 C-1.1875 8.9475 -1.1875 7.9575 -1.1875 6.9375 C0.7925 6.9375 2.7725 6.9375 4.8125 6.9375 C4.8125 9.9075 4.8125 12.8775 4.8125 15.9375 C3.2098218 16.04574843 1.60504252 16.12320645 0 16.1875 C-0.89332031 16.23390625 -1.78664062 16.2803125 -2.70703125 16.328125 C-5.1875 15.9375 -5.1875 15.9375 -6.98046875 14.13671875 C-8.78247914 10.85344415 -8.70419822 8.61897478 -8.1875 4.9375 C-5.62433083 1.31890823 -4.52096595 -0.08864639 0 0 Z " fill="#161616" transform="translate(196.1875,176.0625)"/>
<path d="M0 0 C1.875 1.1875 1.875 1.1875 3 3 C3.42822025 5.85480169 3.40659584 7.34492892 1.875 9.8125 C-0.87155972 11.55198782 -2.81846974 11.39769128 -6 11 C-7.875 9.8125 -7.875 9.8125 -9 8 C-9.42822025 5.14519831 -9.40659584 3.65507108 -7.875 1.1875 C-5.12844028 -0.55198782 -3.18153026 -0.39769128 0 0 Z " fill="#FFF3F3" transform="translate(156,84)"/>
<path d="M0 0 C3.96 0 7.92 0 12 0 C12 1.32 12 2.64 12 4 C10.68 4 9.36 4 8 4 C8 8.29 8 12.58 8 17 C6.68 17 5.36 17 4 17 C4 12.71 4 8.42 4 4 C2.68 4 1.36 4 0 4 C0 2.68 0 1.36 0 0 Z " fill="#2D2D2D" transform="translate(170,176)"/>
<path d="M0 0 C0.33 1.32 0.66 2.64 1 4 C2.98 3.67 4.96 3.34 7 3 C7 7.29 7 11.58 7 16 C4.69 15.67 2.38 15.34 0 15 C0 11.7 0 8.4 0 5 C-0.66 4.67 -1.32 4.34 -2 4 C-1.34 4 -0.68 4 0 4 C0 2.68 0 1.36 0 0 Z " fill="#9A9A9A" transform="translate(260,177)"/>
<path d="M0 0 C2.375 -0.125 2.375 -0.125 5 0 C7.49505962 2.49505962 7.35948376 3.67328888 7.625 7.125 C7.69976562 8.03507813 7.77453125 8.94515625 7.8515625 9.8828125 C7.90054687 10.58148438 7.94953125 11.28015625 8 12 C1.9453125 12.9765625 1.9453125 12.9765625 0 13 C-0.66 12.34 -1.32 11.68 -2 11 C-1.44444444 6.44444444 -1.44444444 6.44444444 0 5 C1.66617115 4.95936168 3.33388095 4.957279 5 5 C5 4.01 5 3.02 5 2 C3.02 2.66 1.04 3.32 -1 4 C-0.67 2.68 -0.34 1.36 0 0 Z " fill="#222222" transform="translate(250,180)"/>
<path d="M0 0 C1.99954746 -0.04254356 4.00041636 -0.04080783 6 0 C7.73956658 1.73956658 7.37190386 4.1936622 7.5625 6.5625 C7.64628906 7.57441406 7.73007813 8.58632812 7.81640625 9.62890625 C7.87699219 10.41136719 7.93757812 11.19382813 8 12 C1.84765625 12.87890625 1.84765625 12.87890625 0 13 C-1 12 -1 12 -1.125 9 C-1 6 -1 6 0 5 C1.66617115 4.95936168 3.33388095 4.957279 5 5 C5 4.01 5 3.02 5 2 C3.68 2 2.36 2 1 2 C1 2.66 1 3.32 1 4 C0.34 4 -0.32 4 -1 4 C-0.67 2.68 -0.34 1.36 0 0 Z " fill="#303030" transform="translate(229,180)"/>
<path d="M0 0 C0.66 0 1.32 0 2 0 C2.33 1.32 2.66 2.64 3 4 C3.804375 4.144375 4.60875 4.28875 5.4375 4.4375 C8 5 8 5 9 6 C9.07226502 7.85287502 9.0838122 9.70833878 9.0625 11.5625 C9.05347656 12.57441406 9.04445312 13.58632812 9.03515625 14.62890625 C9.02355469 15.41136719 9.01195312 16.19382813 9 17 C8.34 17 7.68 17 7 17 C6.67 13.7 6.34 10.4 6 7 C5.01 7 4.02 7 3 7 C2.67 10.3 2.34 13.6 2 17 C1.34 17 0.68 17 0 17 C0 11.39 0 5.78 0 0 Z " fill="#323232" transform="translate(238,176)"/>
<path d="M0 0 C1.32 0 2.64 0 4 0 C4 5.61 4 11.22 4 17 C2.68 17 1.36 17 0 17 C0 11.39 0 5.78 0 0 Z " fill="#383838" transform="translate(165,176)"/>
<path d="M0 0 C1.32 0 2.64 0 4 0 C4 5.61 4 11.22 4 17 C2.68 17 1.36 17 0 17 C0 11.39 0 5.78 0 0 Z " fill="#383838" transform="translate(159,176)"/>
<path d="M0 0 C1.32 0 2.64 0 4 0 C4 5.61 4 11.22 4 17 C2.68 17 1.36 17 0 17 C0 11.39 0 5.78 0 0 Z " fill="#383838" transform="translate(153,176)"/>
<path d="M0 0 C0.66 0 1.32 0 2 0 C2.33 2.97 2.66 5.94 3 9 C3.99 8.67 4.98 8.34 6 8 C6.33 5.36 6.66 2.72 7 0 C7.33 0 7.66 0 8 0 C8 3.63 8 7.26 8 11 C5.125 11.625 5.125 11.625 2 12 C0 10 0 10 -0.1953125 7.6171875 C-0.17210937 6.71226562 -0.14890625 5.80734375 -0.125 4.875 C-0.10695312 3.96492187 -0.08890625 3.05484375 -0.0703125 2.1171875 C-0.04710937 1.41851562 -0.02390625 0.71984375 0 0 Z " fill="#232323" transform="translate(203,181)"/>
<path d="M0 0 C0.33 0 0.66 0 1 0 C1.33 3.3 1.66 6.6 2 10 C-0.64 10.33 -3.28 10.66 -6 11 C-6 9.35 -6 7.7 -6 6 C-4.35 5.67 -2.7 5.34 -1 5 C-0.67 3.35 -0.34 1.7 0 0 Z " fill="#868686" transform="translate(256,182)"/>
<path d="M0 0 C1.32 0.66 2.64 1.32 4 2 C4 2.66 4 3.32 4 4 C3.01 4 2.02 4 1 4 C1 4.99 1 5.98 1 7 C1.99 7 2.98 7 4 7 C3.67 7.99 3.34 8.98 3 10 C-0.875 9.125 -0.875 9.125 -2 8 C-2.1875 5.0625 -2.1875 5.0625 -2 2 C-1.34 1.34 -0.68 0.68 0 0 Z " fill="#E6E6E6" transform="translate(194,179)"/>
<path d="M0 0 C1.99954746 -0.04254356 4.00041636 -0.04080783 6 0 C7 1 7 1 7.09765625 2.84765625 C7.04882812 5.92382812 7.04882812 5.92382812 7 9 C6.01 9.495 6.01 9.495 5 10 C5 9.01 5 8.02 5 7 C3.68 6.67 2.36 6.34 1 6 C2.32 5.67 3.64 5.34 5 5 C5 4.01 5 3.02 5 2 C3.68 2 2.36 2 1 2 C1 2.66 1 3.32 1 4 C0.34 4 -0.32 4 -1 4 C-0.67 2.68 -0.34 1.36 0 0 Z " fill="#353535" transform="translate(229,180)"/>
<path d="M0 0 C0.33 0.66 0.66 1.32 1 2 C1.66 2 2.32 2 3 2 C3 1.34 3 0.68 3 0 C4.32 0 5.64 0 7 0 C7 0.99 7 1.98 7 3 C5.35 3.33 3.7 3.66 2 4 C1.67 5.65 1.34 7.3 1 9 C0.01 8.01 -0.98 7.02 -2 6 C-1.34 4.02 -0.68 2.04 0 0 Z " fill="#E0E0E0" transform="translate(227,182)"/>
<path d="M0 0 C2.33333333 0 4.66666667 0 7 0 C7 0.99 7 1.98 7 3 C4.36 3.66 1.72 4.32 -1 5 C-0.67 3.35 -0.34 1.7 0 0 Z " fill="#DBDBDB" transform="translate(248,182)"/>
<path d="M0 0 C0.66 0 1.32 0 2 0 C2.33 3.3 2.66 6.6 3 10 C2.01 10 1.02 10 0 10 C0 6.7 0 3.4 0 0 Z " fill="#2A2A2A" transform="translate(203,181)"/>
<path d="M0 0 C0.185625 0.9590625 0.185625 0.9590625 0.375 1.9375 C0.684375 2.9584375 0.684375 2.9584375 1 4 C1.66 4.33 2.32 4.66 3 5 C2.34 5 1.68 5 1 5 C1 7.97 1 10.94 1 14 C1.66 14.33 2.32 14.66 3 15 C2.01 15 1.02 15 0 15 C0 11.7 0 8.4 0 5 C-0.66 4.67 -1.32 4.34 -2 4 C-1.34 4 -0.68 4 0 4 C0 2.68 0 1.36 0 0 Z " fill="#0A0A0A" transform="translate(260,177)"/>
<path d="M0 0 C0.99 0.99 1.98 1.98 3 3 C2.34 4.98 1.68 6.96 1 9 C-0.20628008 6.66785852 -1.1654738 4.50357861 -2 2 C-1.34 2 -0.68 2 0 2 C0 1.34 0 0.68 0 0 Z " fill="#606060" transform="translate(221,183)"/>
<path d="M0 0 C0.33 0 0.66 0 1 0 C1 1.98 1 3.96 1 6 C0.01 6.495 0.01 6.495 -1 7 C-1 6.01 -1 5.02 -1 4 C-2.32 3.67 -3.64 3.34 -5 3 C-3.35 2.67 -1.7 2.34 0 2 C0 1.34 0 0.68 0 0 Z " fill="#191919" transform="translate(235,183)"/>
<path d="M0 0 C1.32 0 2.64 0 4 0 C3.67 1.32 3.34 2.64 3 4 C1.68 3.67 0.36 3.34 -1 3 C-0.67 2.01 -0.34 1.02 0 0 Z " fill="#DEDEDE" transform="translate(230,187)"/>
<path d="M0 0 C-0.33 0.66 -0.66 1.32 -1 2 C-3.32156597 2.40729228 -5.6568787 2.74438677 -8 3 C-5.45189726 -0.82215411 -4.39145359 -1.46381786 0 0 Z " fill="#737373" transform="translate(108,150)"/>
</svg>
